<svg width="15" height="15" viewBox="0 0 15 15" fill="none" xmlns="http://www.w3.org/2000/svg">
<path d="M8 4.13125C9.96875 4.13125 11.5938 5.75625 11.5938 7.725C11.5938 9.725 9.96875 11.3187 8 11.3187C6 11.3187 4.40625 9.725 4.40625 7.725C4.40625 5.75625 6 4.13125 8 4.13125ZM8 10.0687C9.28125 10.0687 10.3125 9.0375 10.3125 7.725C10.3125 6.44375 9.28125 5.4125 8 5.4125C6.6875 5.4125 5.65625 6.44375 5.65625 7.725C5.65625 9.0375 6.71875 10.0687 8 10.0687ZM12.5625 4.00625C12.5625 4.475 12.1875 4.85 11.7188 4.85C11.25 4.85 10.875 4.475 10.875 4.00625C10.875 3.5375 11.25 3.1625 11.7188 3.1625C12.1875 3.1625 12.5625 3.5375 12.5625 4.00625ZM14.9375 4.85C15 6.00625 15 9.475 14.9375 10.6312C14.875 11.7562 14.625 12.725 13.8125 13.5687C13 14.3812 12 14.6312 10.875 14.6937C9.71875 14.7562 6.25 14.7562 5.09375 14.6937C3.96875 14.6312 3 14.3812 2.15625 13.5687C1.34375 12.725 1.09375 11.7562 1.03125 10.6312C0.96875 9.475 0.96875 6.00625 1.03125 4.85C1.09375 3.725 1.34375 2.725 2.15625 1.9125C3 1.1 3.96875 0.849998 5.09375 0.787498C6.25 0.724998 9.71875 0.724998 10.875 0.787498C12 0.849998 13 1.1 13.8125 1.9125C14.625 2.725 14.875 3.725 14.9375 4.85ZM13.4375 11.85C13.8125 10.9437 13.7188 8.75625 13.7188 7.725C13.7188 6.725 13.8125 4.5375 13.4375 3.6C13.1875 3.00625 12.7188 2.50625 12.125 2.2875C11.1875 1.9125 9 2.00625 8 2.00625C6.96875 2.00625 4.78125 1.9125 3.875 2.2875C3.25 2.5375 2.78125 3.00625 2.53125 3.6C2.15625 4.5375 2.25 6.725 2.25 7.725C2.25 8.75625 2.15625 10.9437 2.53125 11.85C2.78125 12.475 3.25 12.9437 3.875 13.1937C4.78125 13.5687 6.96875 13.475 8 13.475C9 13.475 11.1875 13.5687 12.125 13.1937C12.7188 12.9437 13.2188 12.475 13.4375 11.85Z" fill="white"/>
</svg>
