<svg width="16" height="14" viewBox="0 0 16 14" fill="none" xmlns="http://www.w3.org/2000/svg">
<path d="M14.3438 3.475C14.3438 3.63125 14.3438 3.75625 14.3438 3.9125C14.3438 8.25625 11.0625 13.225 5.03125 13.225C3.15625 13.225 1.4375 12.6937 0 11.7562C0.25 11.7875 0.5 11.8187 0.78125 11.8187C2.3125 11.8187 3.71875 11.2875 4.84375 10.4125C3.40625 10.3812 2.1875 9.44375 1.78125 8.13125C2 8.1625 2.1875 8.19375 2.40625 8.19375C2.6875 8.19375 3 8.13125 3.25 8.06875C1.75 7.75625 0.625 6.44375 0.625 4.85V4.81875C1.0625 5.06875 1.59375 5.19375 2.125 5.225C1.21875 4.63125 0.65625 3.63125 0.65625 2.50625C0.65625 1.88125 0.8125 1.31875 1.09375 0.849998C2.71875 2.81875 5.15625 4.13125 7.875 4.2875C7.8125 4.0375 7.78125 3.7875 7.78125 3.5375C7.78125 1.725 9.25 0.256248 11.0625 0.256248C12 0.256248 12.8438 0.631248 13.4688 1.2875C14.1875 1.13125 14.9062 0.849998 15.5312 0.474998C15.2812 1.25625 14.7812 1.88125 14.0938 2.2875C14.75 2.225 15.4062 2.0375 15.9688 1.7875C15.5312 2.44375 14.9688 3.00625 14.3438 3.475Z" fill="white"/>
</svg>
